<svg width="18" height="18" viewBox="0 0 18 18" fill="none" xmlns="http://www.w3.org/2000/svg">
<path d="M16.4404 17.2481L15.3451 5.05022C15.3152 4.7171 15.036 4.46195 14.7016 4.46195H12.4429V3.44322C12.4429 1.54463 10.8983 0 8.9998 0C7.10139 0 5.55702 1.54463 5.55702 3.44322V4.46195H3.29671C2.9623 4.46195 2.68312 4.7171 2.65322 5.05022L1.55361 17.2961C1.53741 17.4769 1.59789 17.6559 1.7203 17.7898C1.8427 17.9237 2.01577 17.9999 2.1971 17.9999H15.8013C15.8018 17.9999 15.8025 17.9999 15.803 17.9999C16.1599 17.9999 16.4491 17.7106 16.4491 17.3538C16.449 17.3179 16.4461 17.2825 16.4404 17.2481ZM6.84916 3.44322C6.84916 2.25712 7.81396 1.29214 8.99989 1.29214C10.1859 1.29214 11.1508 2.25712 11.1508 3.44322V4.46195H6.84916V3.44322ZM2.90381 16.7079L3.88739 5.75409H5.55702V6.90944C5.55702 7.26624 5.8462 7.55551 6.20309 7.55551C6.55998 7.55551 6.84916 7.26624 6.84916 6.90944V5.75409H11.1508V6.90944C11.1508 7.26624 11.44 7.55551 11.7969 7.55551C12.1538 7.55551 12.4429 7.26624 12.4429 6.90944V5.75409H14.111L15.0946 16.7079H2.90381Z" fill="url(#paint0_linear)"/>
<defs>
<linearGradient id="paint0_linear" x1="7.56985" y1="14.8078" x2="10.2399" y2="0.178929" gradientUnits="userSpaceOnUse">
<stop stop-color="#499E68"/>
<stop offset="1" stop-color="#66B644"/>
</linearGradient>
</defs>
</svg>
