<svg width="18" height="18" viewBox="0 0 18 18" fill="none" xmlns="http://www.w3.org/2000/svg">
<path d="M13.8601 3.81832L12.9917 4.93389C14.8635 6.39037 15.7972 8.7484 15.4287 11.0884C15.1587 12.8055 14.2361 14.3146 12.831 15.3381C11.4254 16.3611 9.70601 16.7769 7.98896 16.5055C4.4444 15.9474 2.01401 12.6097 2.57119 9.06489C2.84114 7.34765 3.76404 5.8384 5.16934 4.81517C6.39629 3.92199 7.86244 3.493 9.35757 3.5781L8.13555 4.86013L9.0421 5.72525L10.9711 3.70007L10.9716 3.70081L11.8358 2.79333L10.9299 1.92913L10.9294 1.92941L8.90499 0L8.04014 0.907483L9.35924 2.16388C7.56611 2.07906 5.80976 2.60066 4.33748 3.67266C2.62702 4.91809 1.50393 6.75498 1.17508 8.84547C0.496771 13.1599 3.45471 17.223 7.76917 17.902C8.18617 17.9678 8.60299 18 9.01711 18C10.679 18 12.2938 17.4777 13.6628 16.4806C15.3735 15.235 16.4964 13.3981 16.8252 11.3081C17.2738 8.46052 16.1375 5.59046 13.8601 3.81832Z" fill="#A4A7B0"/>
<path d="M9.77605 14.1172V14.1169H9.77615V13.3035C10.7407 13.1958 11.6791 12.5865 11.6791 11.4298C11.6791 9.85811 10.2177 9.67789 9.15023 9.54645C8.46773 9.46489 7.94539 9.37023 7.94539 8.95676C7.94539 8.38193 8.75561 8.31997 9.10406 8.31997C9.6212 8.31997 10.173 8.56307 10.3605 8.87334L10.4149 8.96354L11.4871 8.46739L11.434 8.35926C11.0345 7.54244 10.3185 7.30612 9.77587 7.21072V6.49451H8.5204V7.20765C7.35161 7.38007 6.6575 8.02874 6.6575 8.95676C6.6575 10.47 8.0315 10.6236 9.03392 10.736C9.92728 10.8413 10.3432 11.062 10.3432 11.4298C10.3432 12.1323 9.3702 12.1872 9.07192 12.1872C8.408 12.1872 7.76787 11.856 7.58273 11.4161L7.53675 11.3075L6.37195 11.8014L6.4184 11.91C6.76331 12.7173 7.50758 13.2232 8.52059 13.3428V14.1172H9.77605Z" fill="#A4A7B0"/>
</svg>
