<svg width="182" height="47" viewBox="0 0 182 47" fill="none" xmlns="http://www.w3.org/2000/svg">
<path opacity="0.5" d="M36.3998 1.66357L0.586914 8.22477H36.3998C36.3998 4.80611 36.3998 2.28809 36.3998 1.66357Z" fill="white"/>
<path opacity="0.7" d="M0.586914 8.2251L36.3998 15.1834V38.9942C39.8308 38.8115 42.8579 37.9479 42.8579 33.581C42.8579 31.4783 42.8579 8.2251 42.8579 8.2251H0.586914Z" fill="white"/>
<path d="M0.586914 8.2251V39.4625C0.586914 39.4625 29.4374 46.0595 30.4467 46.0595C33.5594 46.0595 36.3153 44.4157 36.3153 41.3013C36.3153 41.1427 36.3998 39.4213 36.3998 39.4213V15.1834L0.586914 8.2251ZM30.7496 31.9478C29.5038 31.9478 28.4957 30.9373 28.4957 29.6912C28.4957 28.4457 29.5038 27.4363 30.7496 27.4363C31.996 27.4363 33.0041 28.4457 33.0041 29.6912C33.0041 30.9378 31.996 31.9478 30.7496 31.9478Z" fill="white"/>
<path d="M56.9954 15.553C56.9954 13.0708 56.9185 9.96997 56.8398 8.2251H61.9535L62.2265 11.8318H62.3022C63.696 9.81546 65.8665 8.76912 68.6152 8.76912C72.7613 8.76912 76.48 12.3746 76.48 18.4217C76.48 25.3219 72.1032 28.5784 67.8802 28.5784C65.5952 28.5784 63.8128 27.6484 62.9609 26.4082H62.884V33.4018L56.9954 36.881V15.553ZM62.8834 20.0109C62.8834 20.4768 62.9204 20.9033 63.0002 21.2511C63.3854 22.8409 64.7439 24.0418 66.4465 24.0418C69.0027 24.0418 70.5139 21.9109 70.5139 18.6926C70.5139 15.6693 69.1589 13.3822 66.5234 13.3822C64.8572 13.3822 63.3854 14.6236 63.0002 16.3661C62.9204 16.6763 62.8834 17.064 62.8834 17.4148V20.0109Z" fill="white"/>
<path d="M98.9845 18.6549C98.9845 25.749 93.5615 28.5784 88.8354 28.5784C83.4511 28.5784 79.1899 24.8953 79.1899 18.6925C79.1899 12.297 83.7223 8.76904 89.2998 8.76904C94.9958 8.76904 98.9845 12.5296 98.9845 18.6549ZM85.2723 18.7325C85.2723 21.7557 86.4723 24.3537 89.106 24.3537C91.7027 24.3537 92.9039 21.7945 92.9039 18.7325C92.9039 16.0176 92.0121 12.955 89.106 12.955C86.2005 12.955 85.2723 16.0564 85.2723 18.7325Z" fill="white"/>
<path d="M116.96 27.686C115.913 28.1507 113.937 28.5784 111.69 28.5784C105.568 28.5784 101.656 24.8172 101.656 18.8482C101.656 13.3051 105.451 8.76904 112.502 8.76904C114.053 8.76904 115.757 9.04047 116.995 9.50518L116.067 13.8856C115.369 13.5771 114.325 13.3057 112.775 13.3057C109.676 13.3057 107.661 15.5147 107.699 18.6155C107.699 22.1035 110.024 23.9248 112.891 23.9248C114.284 23.9248 115.369 23.6933 116.259 23.3056L116.96 27.686Z" fill="white"/>
<path d="M126.1 17.1812H126.177C126.603 16.4063 127.068 15.6296 127.532 14.894L131.368 9.19587H138.456L131.677 16.871L139.425 28.1504H132.18L127.609 20.3601L126.1 22.219V28.1504H120.212V5.47817L126.1 2.08301V17.1812Z" fill="white"/>
<path d="M145.197 20.5536C145.391 22.9958 147.791 24.1585 150.541 24.1585C152.558 24.1585 154.183 23.8877 155.771 23.3836L156.547 27.3751C154.609 28.1511 152.248 28.5789 149.691 28.5789C143.26 28.5789 139.579 24.8177 139.579 18.8869C139.579 14.0794 142.561 8.76953 149.147 8.76953C155.268 8.76953 157.591 13.5389 157.591 18.2283C157.591 19.2376 157.474 20.1271 157.397 20.5542H145.197V20.5536ZM152.13 16.5216C152.13 15.0887 151.511 12.6852 148.799 12.6852C146.318 12.6852 145.313 14.9342 145.156 16.5216H152.13Z" fill="white"/>
<path d="M167.702 2.08252V9.19538H171.925V13.5382H167.702V20.399C167.702 22.6856 168.245 23.7319 170.025 23.7319C170.763 23.7319 171.344 23.6561 171.77 23.5768L171.809 28.0353C171.034 28.3449 169.64 28.5782 167.97 28.5782C166.075 28.5782 164.486 27.8796 163.558 26.9097C162.472 25.7864 161.931 23.9645 161.931 21.2902V13.5382H159.412V9.19538H161.931V5.08582L167.702 2.08252Z" fill="white"/>
<path d="M181.413 3.92503C181.413 5.55064 180.176 6.87075 178.239 6.87075C176.379 6.87075 175.139 5.55064 175.179 3.92503C175.139 2.21775 176.379 0.939941 178.276 0.939941C180.176 0.939941 181.376 2.21775 181.413 3.92503ZM175.334 28.1512V9.19608H181.222V28.1512H175.334Z" fill="white"/>
</svg>
