<?xml version="1.0" standalone="no"?>
<!DOCTYPE svg PUBLIC "-//W3C//DTD SVG 1.1//EN" "http://www.w3.org/Graphics/SVG/1.1/DTD/svg11.dtd" >
<svg xmlns="http://www.w3.org/2000/svg">
<metadata>Generated by IcoMoon</metadata>
<defs>
<font id="icomoon" horiz-adv-x="1024">
<font-face units-per-em="1024" ascent="960" descent="-64" />
<missing-glyph horiz-adv-x="1024" />
<glyph unicode="&#x20;" horiz-adv-x="512" d="" />
<glyph unicode="&#xe900;" glyph-name="icon-refund3" d="M788.486 742.78l-49.402-63.464c106.485-82.858 159.602-217.003 138.638-350.123-15.36-97.684-67.846-183.535-147.78-241.761-79.963-58.197-177.777-81.852-275.458-66.412-201.646 31.75-339.908 221.628-308.211 423.288 15.357 97.692 67.86 183.551 147.806 241.762 69.8 50.812 153.207 75.217 238.264 70.376l-69.519-72.933 51.573-49.216 158.93 166.794-166.731 158.909-49.2-51.626 75.042-71.475c-102.009 4.825-201.926-24.848-285.682-85.833-97.306-70.851-161.198-175.35-179.905-294.275-38.588-245.443 129.686-476.588 375.13-515.216 23.723-3.743 47.435-5.575 70.994-5.575 94.543 0 186.407 29.713 264.288 86.437 97.32 70.861 161.2 175.36 179.905 294.258 25.52 161.996-39.122 325.27-168.681 426.085z" />
<glyph unicode="&#xe901;" glyph-name="icon-upload" d="M787.288 101.924h-209.878v212.078h69.36c17.59 0 27.984 19.988 17.59 34.381l-134.922 186.692c-8.595 11.993-26.385 11.993-34.98 0l-134.922-186.692c-10.394-14.392-0.2-34.381 17.589-34.381h69.361v-212.078h-235.065c-104.94 5.797-188.492 103.94-188.492 210.279 0 73.358 39.777 137.321 98.743 171.901-5.396 14.591-8.195 30.182-8.195 46.573 0 74.957 60.565 135.522 135.522 135.522 16.19 0 31.781-2.798 46.373-8.195 43.374 91.947 136.921 155.71 245.658 155.71 140.719-0.2 256.651-107.938 269.846-245.259 108.134-18.589 190.288-118.731 190.288-232.066 0-121.13-94.347-226.070-213.877-234.465z" />
<glyph unicode="&#xe902;" glyph-name="icon-refund2" d="M754.688 718.665l5.945-4.623c116.477-90.635 174.598-237.423 151.654-383.068 0 0 0-0.006 0-0.006l-7.439 1.175c-16.504-104.912-72.873-197.114-158.738-259.644l8.578 646.166zM754.688 718.665l-4.62-5.94-48.218-61.94 5.945-4.624c91.799-71.43 137.583-187.071 119.513-301.82v0c-13.24-84.215-58.47-158.202-127.386-208.402M754.688 718.665l-54.766-582.726M699.922 135.939c-68.947-50.176-153.236-70.56-237.445-57.248h-0.004c-173.816 27.365-293.006 191.054-265.683 364.883 13.24 84.225 58.484 158.215 127.411 208.401 55.621 40.49 121.229 61.518 188.724 61.181l-54.907-57.603 56.401-53.824 150.62 158.077-158.012 150.604-53.803-56.455 57.568-54.832c-84.852-0.080-167.309-26.727-237.213-77.625-87.472-63.691-144.929-157.665-161.746-264.571v-0.001c-34.694-220.677 116.587-428.483 337.265-463.209l250.823 142.222z" />
<glyph unicode="&#xe903;" glyph-name="icon-edit" d="M0 149.365v-213.365h213.363l629.565 629.565-213.366 213.363-629.562-629.563zM1007.345 810.505l-132.857 132.853c-22.192 22.19-58.324 22.19-80.508 0l-104.123-104.121 213.362-213.363 104.119 104.121c22.199 22.189 22.199 58.32 0.007 80.51z" />
<glyph unicode="&#xe904;" glyph-name="icon-close2" d="M512.003 545.505l341.348 341.349 97.51-97.509-341.35-341.348 341.35-341.348-97.51-97.51-341.348 341.35-341.348-341.35-97.509 97.51 341.349 341.348-341.349 341.348 97.509 97.509 341.348-341.349z" />
<glyph unicode="&#xe905;" glyph-name="icon-tick" d="M347.371 283.421l528.661 528.662 80.452-80.453-609.113-609.112-324.671 324.667 80.453 80.454 244.218-244.218z" />
<glyph unicode="&#xe906;" glyph-name="icon-block" d="M0 448.002c0-282.312 229.682-511.995 511.998-511.995 282.312 0 511.995 229.683 511.995 511.995 0 282.315-229.676 511.998-511.995 511.998s-511.998-229.682-511.998-511.998zM842.759 448.002c0-182.383-148.378-330.762-330.762-330.762-58.324 0-113.134 15.228-160.764 41.83l449.688 449.695c26.609-47.631 41.838-102.44 41.838-160.764zM511.998 778.762c58.323 0 113.133-15.229 160.764-41.836l-449.682-449.693c-26.612 47.631-41.841 102.44-41.841 160.769 0 182.384 148.375 330.759 330.759 330.759z" />
<glyph unicode="&#xe907;" glyph-name="icon-lock" d="M849.686 546.466h-19.953v93.384c0 172.722-137.068 317.006-308.384 320.086-4.681 0.084-14.035 0.084-18.714 0-171.32-3.080-308.384-147.364-308.384-320.086v-93.384h-19.955c-30.75 0-55.831-31.73-55.831-70.918v-468.381c0-39.139 25.082-71.168 55.834-71.168h675.388c30.749 0 55.83 32.029 55.83 71.168v468.381c0 39.186-25.081 70.918-55.83 70.918zM575.265 241.835v-141.527c0-16.208-13.567-29.923-29.785-29.923h-66.973c-16.221 0-29.788 13.714-29.788 29.923v141.527c-15.73 15.484-24.888 36.895-24.888 60.579 0 44.883 34.694 83.45 78.807 85.233 4.675 0.189 14.039 0.189 18.714 0 44.113-1.782 78.807-40.349 78.807-85.233-0.004-23.684-9.162-45.095-24.893-60.579zM698.221 546.466h-372.459v93.384c0 102.887 83.615 187.96 186.228 187.96s186.233-85.072 186.233-187.96v-93.384h-0.002z" />
<glyph unicode="&#xe908;" glyph-name="icon-down-arrow" d="M496.486 278.858l381.191 417.364 73.92-80.934-455.111-498.299-455.111 498.299 73.919 80.934 381.192-417.364z" />
<glyph unicode="&#xe909;" glyph-name="icon-calander" d="M190.16 806.393h643.661c80.786 0 146.286-65.494 146.286-146.286v-497.371c0-80.794-65.499-146.286-146.286-146.286h-643.661c-80.791 0-146.285 65.492-146.285 146.286v497.371c0 80.791 65.494 146.286 146.285 146.286zM190.16 747.878c-48.475 0-87.771-39.297-87.771-87.771v-497.371c0-48.472 39.297-87.771 87.771-87.771h643.661c48.472 0 87.771 39.3 87.771 87.771v497.371c0 48.475-39.3 87.771-87.771 87.771h-643.661zM248.707 923.429c16.159 0 29.257-13.099 29.257-29.257v-87.771c0-16.158-13.098-29.257-29.257-29.257s-29.257 13.099-29.257 29.257v87.771c0 16.158 13.099 29.257 29.257 29.257zM775.329 923.429c16.165 0 29.257-13.099 29.257-29.257v-87.771c0-16.158-13.093-29.257-29.257-29.257-16.157 0-29.257 13.099-29.257 29.257v87.771c0 16.158 13.1 29.257 29.257 29.257z" />
<glyph unicode="&#xe90a;" glyph-name="icon-school" d="M975.531 356.449v209.659c0 13.226-8.533 24.953-21.123 29.008l-457.291 147.414c-6.078 1.961-12.625 1.961-18.703 0l-457.289-147.414c-12.586-4.054-21.125-15.774-21.125-29.008 0-13.227 8.539-24.946 21.125-29l228.938-73.805v-114.346c0-0.495 0.015-0.99 0.039-1.485 0.906-29.656 28.93-57.754 79.14-79.28 45.867-19.661 102.172-30.492 158.531-30.492s112.666 10.832 158.53 30.492c51.046 21.885 79.167 50.563 79.167 80.765v114.346l189.11 60.961v-167.815c-28.439-11.941-48.469-40.084-48.469-72.818v-103.259c0-16.828 13.648-30.475 30.475-30.475h96.939c16.828 0 30.475 13.648 30.475 30.475v103.259c0 32.734-20.025 60.877-48.469 72.818zM612.75 320.358c-36.773-13.995-81.157-21.703-124.977-21.703-43.828 0-88.211 7.708-124.976 21.703-32.226 12.271-48.102 25.543-51.781 31.118v92.178l167.398-53.96c3.039-0.978 6.195-1.468 9.352-1.468s6.312 0.484 9.351 1.468l167.396 53.96v-92.2c-3.709-5.581-19.575-18.842-51.763-31.095zM487.766 450.716l-357.961 115.391 357.961 115.391 357.961-115.391-357.961-115.391zM963.049 210.847h-35.988v72.784c0 9.921 8.078 17.994 17.994 17.994 9.921 0 17.994-8.073 17.994-17.994v-72.784z" />
<glyph unicode="&#xe90b;" glyph-name="icon-bag" d="M935.276-21.225l-62.31 693.924c-1.701 18.951-17.584 33.466-36.608 33.466h-128.495v57.954c0 108.009-87.871 195.881-195.874 195.881-107.998 0-195.856-87.872-195.856-195.881v-57.954h-128.587c-19.024 0-34.906-14.515-36.607-33.466l-62.556-696.655c-0.922-10.286 2.519-20.469 9.483-28.086s16.809-11.952 27.125-11.952h773.928c0.028 0 0.068 0 0.097 0 20.304 0 36.756 16.458 36.756 36.756-0.006 2.042-0.171 4.056-0.495 6.013zM389.641 764.119c0 67.476 54.886 122.373 122.353 122.373 67.471 0 122.363-54.897 122.363-122.373v-57.954h-244.716v57.954zM165.195 9.506l55.955 623.15h94.983v-65.727c0-20.298 16.451-36.754 36.754-36.754s36.754 16.456 36.754 36.754v65.727h244.716v-65.727c0-20.298 16.452-36.754 36.756-36.754s36.75 16.456 36.75 36.754v65.727h94.896l55.956-623.15h-693.52z" />
<glyph unicode="&#xe90c;" glyph-name="icon-bill" d="M802.173 882.298l-104.823 60.406-104.829-60.406-104.822 60.406-104.826-60.404-134.848 77.7v-805.217h-161.080v-108.22c0-60.968 49.598-110.564 110.564-110.564h628.95c60.962 0 110.564 49.596 110.564 110.564v913.436l-134.849-77.702zM197.509-3.954c-27.856 0-50.52 22.659-50.52 50.517v48.174h568.907v-48.174c0-18.187 4.415-35.368 12.231-50.517h-530.618zM826.459-3.954c-27.858 0-50.523 22.659-50.523 50.517v108.22h-467.867v701.321l74.801-43.102 104.826 60.4 104.824-60.4 104.829 60.402 104.823-60.402 74.803 43.102v-809.54c0-27.858-22.665-50.517-50.517-50.517zM816.936 689.028h-448.811v-60.044h448.811v60.044zM816.936 574.5h-448.811v-60.044h448.811v60.044zM592.532 460h-224.407v-60.045h224.407v60.045z" />
<glyph unicode="&#xe90d;" glyph-name="icon-close" d="M512.015 508.339l211.198 211.2 60.333-60.331-211.2-211.2 211.2-211.202-60.333-60.326-211.198 211.198-211.199-211.198-60.331 60.326 211.2 211.202-211.2 211.2 60.331 60.331 211.199-211.2z" />
<glyph unicode="&#xe90e;" glyph-name="icon-filter" d="M865.466 735.066h-456.924c-12.562 37.31-47.852 64.266-89.344 64.266s-76.782-26.956-89.344-64.266h-71.322c-16.568 0-30-13.432-30-30s13.432-30 30-30h71.324c12.562-37.31 47.852-64.266 89.344-64.266s76.782 26.956 89.344 64.266h456.922c16.57 0 29.997 13.432 29.997 30s-13.427 30-29.997 30zM319.197 670.8c-18.894 0-34.266 15.372-34.266 34.266s15.372 34.266 34.266 34.266c18.894 0 34.266-15.372 34.266-34.266s-15.372-34.266-34.266-34.266zM865.466 478.001h-71.328c-12.563 37.31-47.853 64.266-89.344 64.266s-76.778-26.956-89.34-64.266h-456.922c-16.568 0-30-13.432-30-30s13.432-30 30-30h456.922c12.562-37.31 47.855-64.266 89.347-64.266 41.485 0 76.781 26.956 89.344 64.266h71.322c16.57 0 29.997 13.432 29.997 30s-13.427 30-29.997 30zM704.8 413.734c-18.899 0-34.266 15.372-34.266 34.266s15.366 34.266 34.266 34.266c18.893 0 34.266-15.372 34.266-34.266s-15.373-34.266-34.266-34.266zM865.466 220.934h-328.39c-12.562 37.312-47.852 64.269-89.344 64.269s-76.782-26.957-89.344-64.269h-199.856c-16.568 0-30-13.434-30-30.003 0-16.563 13.432-29.997 30-29.997h199.856c12.562-37.312 47.852-64.269 89.344-64.269s76.782 26.957 89.344 64.269h328.39c16.57 0 29.997 13.434 29.997 29.997 0 16.57-13.427 30.003-29.997 30.003zM447.731 156.666c-18.894 0-34.266 15.373-34.266 34.266s15.372 34.266 34.266 34.266c18.894 0 34.266-15.366 34.266-34.266 0-18.893-15.372-34.266-34.266-34.266z" />
<glyph unicode="&#xe90f;" glyph-name="icon-search" d="M426.669 192c78.879 0 151.508 26.758 209.308 71.686l229.859-229.856 60.339 60.339-229.856 229.859c44.928 57.8 71.68 130.428 71.68 209.306 0 188.513-152.817 341.334-341.331 341.334s-341.334-152.82-341.334-341.334c0-188.513 152.82-341.334 341.334-341.334zM682.669 533.334c0-141.385-114.614-255.997-255.999-255.997s-256 114.612-256 255.997c0 141.385 114.615 256 256 256s255.999-114.615 255.999-256z" />
<glyph unicode="&#xe910;" glyph-name="icon-settings" d="M1001.199 534.8l-119.797 29.4c-6.605 21-15.002 41.4-25.202 61.2l61.201 102c7.196 12 5.399 27-4.204 36.6l-85.197 85.2c-9.603 9.6-24.599 11.4-36.602 4.2l-101.996-61.2c-19.803 10.2-40.203 18.6-61.201 25.2l-28.803 119.8c-3.601 13.2-15.599 22.8-29.4 22.8h-119.998c-13.8 0-25.8-9.6-29.4-22.8l-28.8-119.8c-21-6.6-41.4-15-61.2-25.2l-102 61.2c-12 7.2-27 5.4-36.6-4.2l-85.2-85.2c-9.6-9.6-11.4-24.6-4.2-36.6l61.2-102c-10.2-19.8-18.6-40.2-25.2-61.2l-115.8-29.4c-13.2-3-22.8-15-22.8-28.8v-119.997c0-13.801 9.6-25.805 22.8-28.803l115.8-29.4c6.6-20.998 15-41.398 25.2-61.201l-61.2-101.996c-7.2-12.004-5.4-27.005 4.2-36.602l85.2-85.202c9.6-9.597 24.6-11.395 36.6-4.198l102 61.201c19.8-10.2 40.2-18.603 61.2-25.202l28.8-115.797c3.6-13.204 15.6-22.801 29.4-22.801h119.998c13.801 0 25.799 9.597 29.4 22.801l28.803 115.797c20.998 6.599 41.398 15.002 61.201 25.202l101.996-61.201c12.004-7.196 26.999-5.399 36.602 4.198l85.197 85.202c9.603 9.597 11.401 24.599 4.204 36.602l-61.201 101.996c10.2 19.803 18.597 40.203 25.202 61.201l119.797 29.4c13.204 2.998 22.801 15.002 22.801 28.803v119.997c0 13.8-9.597 25.8-22.801 28.8zM510 295.999c-82.8 0-150 67.203-150 150.001 0 82.8 67.201 150 150 150s150.002-67.2 150.002-150c0-82.798-67.203-150.001-150.002-150.001z" />
<glyph unicode="&#xe911;" glyph-name="icon-delete" d="M170.669 49.781c0-62.866 50.915-113.781 113.779-113.781h455.114c62.859 0 113.774 50.915 113.774 113.781v682.663h-682.666v-682.663zM711.11 903.112l-56.891 56.888h-284.443l-56.891-56.888h-199.109v-113.778h796.442v113.778h-199.109z" />
<glyph unicode="&#xe912;" glyph-name="icon-download" d="M933.654 598.589h-240.945v361.411h-361.412v-361.411h-240.94l421.646-421.649 421.651 421.649zM1024 82.286h-1024v-146.286h1024v146.286z" />
<glyph unicode="&#xe913;" glyph-name="icon-refund" d="M788.486 742.78l-49.402-63.464c106.485-82.858 159.602-217.003 138.638-350.123-15.36-97.684-67.846-183.535-147.78-241.761-79.963-58.197-177.777-81.852-275.458-66.412-201.646 31.75-339.908 221.628-308.211 423.288 15.357 97.692 67.86 183.551 147.806 241.762 69.8 50.812 153.207 75.217 238.264 70.376l-69.519-72.933 51.573-49.216 158.93 166.794-166.731 158.909-49.2-51.626 75.042-71.475c-102.009 4.825-201.926-24.848-285.682-85.833-97.306-70.851-161.198-175.35-179.905-294.275-38.588-245.443 129.686-476.588 375.13-515.216 23.723-3.743 47.435-5.575 70.994-5.575 94.543 0 186.407 29.713 264.288 86.437 97.32 70.861 161.2 175.36 179.905 294.258 25.52 161.996-39.122 325.27-168.681 426.085zM556.149 156.888l0.006 0.017v46.273c54.872 6.127 108.257 40.789 108.257 106.593 0 89.412-83.137 99.664-143.865 107.142-38.827 4.64-68.542 10.025-68.542 33.547 0 32.701 46.093 36.226 65.915 36.226 29.42 0 60.811-13.83 71.477-31.481l3.095-5.131 60.996 28.225-3.021 6.151c-22.727 46.468-63.46 59.912-94.329 65.339v40.744h-71.422v-40.57c-66.491-9.809-105.978-46.711-105.978-99.505 0-86.087 78.165-94.825 135.192-101.219 50.822-5.99 74.483-18.546 74.483-39.47 0-39.964-55.353-43.088-72.322-43.088-37.77 0-74.186 18.842-84.718 43.867l-2.616 6.178-66.264-28.097 2.642-6.178c19.622-45.926 61.962-74.706 119.591-81.51v-44.055h71.422z" />
</font>
</defs>
</svg>
