<svg width="18" height="18" viewBox="0 0 18 18" fill="none" xmlns="http://www.w3.org/2000/svg">
<path d="M14.1007 1.36586L12.2581 0.304031L10.4154 1.36586L8.57282 0.304031L6.73018 1.36582L4.3598 0V14.1542H1.52832V16.0565C1.52832 17.1282 2.40016 18 3.47183 18H14.5276C15.5992 18 16.4711 17.1282 16.4711 16.0565V0L14.1007 1.36586ZM3.47183 16.9445C2.98217 16.9445 2.58378 16.5462 2.58378 16.0565V15.2097H12.5841V16.0565C12.5841 16.3762 12.6617 16.6782 12.7991 16.9445H3.47183ZM14.5276 16.9445C14.0379 16.9445 13.6395 16.5462 13.6395 16.0565V14.1542H5.41527V1.8263L6.73014 2.58395L8.57279 1.52223L10.4154 2.58395L12.2581 1.5222L14.1007 2.58395L15.4156 1.8263V16.0565C15.4156 16.5462 15.0172 16.9445 14.5276 16.9445Z" fill="url(#paint0_linear)"/>
<path d="M14.3602 4.76318H6.47095V5.81864H14.3602V4.76318Z" fill="url(#paint1_linear)"/>
<path d="M14.3602 6.77637H6.47095V7.83183H14.3602V6.77637Z" fill="url(#paint2_linear)"/>
<path d="M10.4156 8.78906H6.47095V9.84453H10.4156V8.78906Z" fill="url(#paint3_linear)"/>
<defs>
<linearGradient id="paint0_linear" x1="7.5652" y1="14.8079" x2="10.2278" y2="0.176116" gradientUnits="userSpaceOnUse">
<stop stop-color="#499E68"/>
<stop offset="1" stop-color="#66B644"/>
</linearGradient>
<linearGradient id="paint1_linear" x1="9.6582" y1="5.63147" x2="9.6761" y2="4.74546" gradientUnits="userSpaceOnUse">
<stop stop-color="#499E68"/>
<stop offset="1" stop-color="#66B644"/>
</linearGradient>
<linearGradient id="paint2_linear" x1="9.6582" y1="7.64465" x2="9.6761" y2="6.75864" gradientUnits="userSpaceOnUse">
<stop stop-color="#499E68"/>
<stop offset="1" stop-color="#66B644"/>
</linearGradient>
<linearGradient id="paint3_linear" x1="8.06458" y1="9.65735" x2="8.10035" y2="8.77242" gradientUnits="userSpaceOnUse">
<stop stop-color="#499E68"/>
<stop offset="1" stop-color="#66B644"/>
</linearGradient>
</defs>
</svg>
