<svg width="14" height="14" viewBox="0 0 14 14" fill="none" xmlns="http://www.w3.org/2000/svg">
<path d="M0 6.99997C0 10.8597 3.14019 13.9999 6.99997 13.9999C10.8597 13.9999 13.9999 10.8597 13.9999 6.99997C13.9999 3.14019 10.8598 0 6.99997 0C3.14012 0 0 3.14019 0 6.99997ZM11.5221 6.99997C11.5221 9.49349 9.49349 11.5221 6.99997 11.5221C6.20257 11.5221 5.45322 11.3139 4.80202 10.9502L10.9501 4.80202C11.3139 5.45322 11.5221 6.20257 11.5221 6.99997ZM6.99997 2.47787C7.79736 2.47787 8.54671 2.68608 9.19791 3.04984L3.04991 9.19798C2.68608 8.54678 2.47787 7.79743 2.47787 6.99997C2.47787 4.50644 4.50644 2.47787 6.99997 2.47787Z" fill="#A4A7B0"/>
</svg>
