<svg width="18" height="18" viewBox="0 0 18 18" fill="none" xmlns="http://www.w3.org/2000/svg">
<path d="M17.148 10.6093V6.92389C17.148 6.6914 16.998 6.48526 16.7767 6.41399L8.73839 3.82273C8.63155 3.78826 8.51646 3.78826 8.40962 3.82273L0.371338 6.41399C0.150101 6.48526 0 6.69126 0 6.92389C0 7.15639 0.150101 7.36239 0.371338 7.43366L4.39563 8.73101V10.741C4.39563 10.7497 4.3959 10.7584 4.39632 10.7671C4.41225 11.2884 4.90485 11.7823 5.78746 12.1607C6.59372 12.5063 7.58345 12.6967 8.57414 12.6967C9.56483 12.6967 10.5546 12.5063 11.3608 12.1607C12.2581 11.776 12.7524 11.2719 12.7524 10.741V8.73101L16.0766 7.65943V10.6093C15.5767 10.8192 15.2246 11.3139 15.2246 11.8893V13.7044C15.2246 14.0002 15.4645 14.2401 15.7603 14.2401H17.4643C17.7601 14.2401 18 14.0002 18 13.7044V11.8893C18 11.3139 17.648 10.8192 17.148 10.6093ZM10.771 11.2437C10.1246 11.4897 9.34442 11.6252 8.57414 11.6252C7.80373 11.6252 7.02356 11.4897 6.37729 11.2437C5.81081 11.028 5.53175 10.7947 5.46707 10.6967V9.07639L8.40962 10.0249C8.46304 10.0421 8.51852 10.0507 8.57401 10.0507C8.62949 10.0507 8.68497 10.0422 8.73839 10.0249L11.6809 9.07639V10.6971C11.6157 10.7952 11.3368 11.0283 10.771 11.2437ZM8.57401 8.95225L2.28172 6.92389L8.57401 4.89554L14.8663 6.92389L8.57401 8.95225ZM16.9286 13.1687H16.296V11.8893C16.296 11.7149 16.438 11.573 16.6123 11.573C16.7867 11.573 16.9286 11.7149 16.9286 11.8893V13.1687Z" fill="url(#paint0_linear)"/>
<defs>
<linearGradient id="paint0_linear" x1="7.272" y1="12.3881" x2="8.03481" y2="3.6848" gradientUnits="userSpaceOnUse">
<stop stop-color="#499E68"/>
<stop offset="1" stop-color="#66B644"/>
</linearGradient>
</defs>
</svg>
