<svg width="14" height="10" viewBox="0 0 14 10" fill="none" xmlns="http://www.w3.org/2000/svg">
<path d="M10.7637 9.73151H8.60207H8.01998H7.89427V6.83201H8.84255C9.08304 6.83201 9.22515 6.55873 9.08304 6.36196L7.2384 3.80953C7.12089 3.64556 6.87767 3.64556 6.76016 3.80953L4.91552 6.36196C4.77341 6.55873 4.91278 6.83201 5.156 6.83201H6.10429V9.73151H5.97858H5.39649H2.89051C1.45579 9.65226 0.313477 8.31045 0.313477 6.8566C0.313477 5.85366 0.857304 4.97917 1.66348 4.50639C1.5897 4.3069 1.55144 4.09374 1.55144 3.86965C1.55144 2.84485 2.37948 2.01681 3.40428 2.01681C3.62563 2.01681 3.83879 2.05507 4.03829 2.12885C4.6313 0.871764 5.91026 0 7.3969 0C9.32079 0.0027328 10.9058 1.47571 11.0862 3.35315C12.5646 3.6073 13.6878 4.97643 13.6878 6.52593C13.6878 8.18201 12.3979 9.61673 10.7637 9.73151Z" fill="#A4A7B0"/>
</svg>
