<svg width="18" height="18" viewBox="0 0 18 18" fill="none" xmlns="http://www.w3.org/2000/svg">
<path d="M13.8601 3.81832L12.9917 4.93389C14.8635 6.39037 15.7972 8.7484 15.4287 11.0884C15.1587 12.8055 14.2361 14.3146 12.831 15.3381C11.4254 16.3611 9.70601 16.7769 7.98896 16.5055C4.4444 15.9474 2.01401 12.6097 2.57119 9.06489C2.84114 7.34765 3.76404 5.8384 5.16934 4.81517C6.39629 3.92199 7.86244 3.493 9.35757 3.5781L8.13555 4.86013L9.0421 5.72525L10.9711 3.70007L10.9716 3.70081L11.8358 2.79333L10.9299 1.92913L10.9294 1.92941L8.90499 0L8.04014 0.907483L9.35924 2.16388C7.56611 2.07906 5.80976 2.60066 4.33748 3.67266C2.62702 4.91809 1.50393 6.75498 1.17508 8.84547C0.496771 13.1599 3.45471 17.223 7.76917 17.902C8.18617 17.9678 8.60299 18 9.01711 18C10.679 18 12.2938 17.4777 13.6628 16.4806C15.3735 15.235 16.4964 13.3981 16.8252 11.3081C17.2738 8.46052 16.1375 5.59046 13.8601 3.81832Z" fill="#A4A7B0"/>
</svg>
