<svg width="16" height="18" viewBox="0 0 16 18" fill="none" xmlns="http://www.w3.org/2000/svg">
<path d="M13.1007 1.36586L11.2581 0.304031L9.41543 1.36586L7.57282 0.304031L5.73018 1.36582L3.3598 0V14.1542H0.52832V16.0565C0.52832 17.1282 1.40016 18 2.47183 18H13.5276C14.5992 18 15.4711 17.1282 15.4711 16.0565V0L13.1007 1.36586ZM2.47183 16.9445C1.98217 16.9445 1.58378 16.5462 1.58378 16.0565V15.2097H11.5841V16.0565C11.5841 16.3762 11.6617 16.6782 11.7991 16.9445H2.47183ZM13.5276 16.9445C13.0379 16.9445 12.6395 16.5462 12.6395 16.0565V14.1542H4.41527V1.8263L5.73014 2.58395L7.57279 1.52223L9.41543 2.58395L11.2581 1.5222L13.1007 2.58395L14.4156 1.8263V16.0565C14.4156 16.5462 14.0172 16.9445 13.5276 16.9445Z" fill="url(#paint0_linear)"/>
<defs>
<linearGradient id="paint0_linear" x1="6.5652" y1="14.8079" x2="9.22781" y2="0.176116" gradientUnits="userSpaceOnUse">
<stop stop-color="#499E68"/>
<stop offset="1" stop-color="#66B644"/>
</linearGradient>
</defs>
</svg>
