<svg width="32" height="36" viewBox="0 0 32 36" fill="none" xmlns="http://www.w3.org/2000/svg">
<path d="M29.9233 12.877H29.059V8.70567C29.059 8.67947 29.0547 8.65347 29.0513 8.62688C29.05 8.46142 28.9972 8.29859 28.8838 8.1699L21.9429 0.241427C21.9408 0.239194 21.9387 0.238538 21.9373 0.236502C21.896 0.190082 21.8477 0.151671 21.7967 0.118579C21.7815 0.108271 21.7664 0.099801 21.7505 0.0910684C21.7064 0.0671031 21.6595 0.0469459 21.6112 0.0324353C21.5982 0.0290211 21.5865 0.0236371 21.5734 0.0200915C21.5209 0.00774771 21.4664 0 21.4114 0H4.35296C3.57399 0 2.94124 0.63354 2.94124 1.41179V12.8766H2.07697C0.962611 12.8766 0.059082 13.7798 0.059082 14.8943V25.3872C0.059082 26.5012 0.962611 27.4053 2.07697 27.4053H2.94124V34.5883C2.94124 35.3666 3.57399 36 4.35296 36H27.6472C28.4254 36 29.059 35.3666 29.059 34.5883V27.4054H29.9233C31.0372 27.4054 31.9409 26.5016 31.9409 25.3876V14.8947C31.941 13.7799 31.0372 12.877 29.9233 12.877ZM4.35296 1.41179H20.7055V8.63463C20.7055 9.02464 21.0218 9.34052 21.4114 9.34052H27.6472V12.877H4.35296V1.41179ZM14.9805 20.5629C13.2288 19.9529 12.0874 18.9837 12.0874 17.4515C12.0874 15.6521 13.5884 14.2757 16.0751 14.2757C17.264 14.2757 18.1398 14.5259 18.765 14.808L18.2338 16.7318C17.8116 16.5278 17.061 16.2307 16.0283 16.2307C14.9964 16.2307 14.4959 16.7001 14.4959 17.2474C14.4959 17.9202 15.0899 18.2171 16.4512 18.7334C18.3121 19.4214 19.188 20.3905 19.188 21.8767C19.188 23.6435 17.8274 25.1456 14.9338 25.1456C13.7297 25.1456 12.5406 24.832 11.9465 24.5041L12.4311 22.5333C13.0727 22.8625 14.0578 23.1903 15.0748 23.1903C16.1694 23.1903 16.7483 22.7367 16.7483 22.0481C16.7479 21.3908 16.2472 21.0159 14.9805 20.5629ZM2.5616 19.8743C2.5616 16.2775 5.12715 14.2757 8.31684 14.2757C9.55267 14.2757 10.491 14.5259 10.9136 14.7451L10.4282 16.6371C9.94367 16.4346 9.27054 16.2471 8.42623 16.2471C6.53382 16.2471 5.06411 17.388 5.06411 19.7335C5.06411 21.845 6.31498 23.1741 8.44265 23.1741C9.16141 23.1741 9.95916 23.0179 10.4282 22.8301L10.7882 24.6913C10.3502 24.9106 9.36515 25.1456 8.08257 25.1456C4.43852 25.1457 2.5616 22.877 2.5616 19.8743ZM27.6472 34.2056H4.35296V27.4054H27.6472V34.2056ZM26.0703 24.9885H23.2864L19.9083 14.448H22.5207L23.8027 18.9058C24.1625 20.1563 24.4907 21.3605 24.7416 22.6744H24.7881C25.0539 21.4073 25.382 20.1563 25.7419 18.952L27.087 14.448H29.6214L26.0703 24.9885Z" fill="url(#paint0_linear)"/>
<defs>
<linearGradient id="paint0_linear" x1="12.9393" y1="29.6158" x2="17.9506" y2="0.238002" gradientUnits="userSpaceOnUse">
<stop stop-color="#499E68"/>
<stop offset="1" stop-color="#66B644"/>
</linearGradient>
</defs>
</svg>
