<svg width="32" height="36" viewBox="0 0 32 36" fill="none" xmlns="http://www.w3.org/2000/svg">
<path d="M8.4823 18.4464C8.4823 17.477 7.80917 16.8984 6.62126 16.8984C6.13669 16.8984 5.80839 16.9452 5.63623 16.992V20.1049C5.83976 20.1511 6.08995 20.1669 6.43309 20.1669C7.70047 20.1669 8.4823 19.5258 8.4823 18.4464Z" fill="url(#paint0_linear)"/>
<path d="M15.835 16.9297C15.3027 16.9297 14.9594 16.9766 14.7554 17.0235V23.9204C14.959 23.968 15.2875 23.968 15.5848 23.968C17.7427 23.9831 19.1504 22.7951 19.1504 20.2769C19.1662 18.0865 17.8834 16.9297 15.835 16.9297Z" fill="url(#paint1_linear)"/>
<path d="M29.9232 12.877H29.0588V8.70606C29.0588 8.68005 29.0547 8.65384 29.0512 8.6275C29.0498 8.46188 28.9971 8.2992 28.8837 8.17031L21.9428 0.241437C21.9407 0.239411 21.9387 0.238692 21.9372 0.23647C21.8958 0.190261 21.8476 0.15183 21.7966 0.118562C21.7815 0.108431 21.7663 0.0999345 21.7505 0.0911763C21.7063 0.0670587 21.6594 0.0470587 21.6112 0.0326143C21.5981 0.0289542 21.5864 0.0235947 21.5733 0.020196C21.5209 0.00777776 21.4664 0 21.4113 0H4.35293C3.57398 0 2.94117 0.633528 2.94117 1.41183V12.8767H2.07692C0.96261 12.8767 0.059082 13.7798 0.059082 14.8945V25.3877C0.059082 26.5016 0.96261 27.4053 2.07692 27.4053H2.94123V34.5882C2.94123 35.3664 3.57404 36 4.353 36H27.6471C28.4253 36 29.0588 35.3665 29.0588 34.5882V27.4053H29.9233C31.0373 27.4053 31.941 26.5016 31.941 25.3877V14.8949C31.9409 13.7802 31.0372 12.877 29.9232 12.877ZM4.35293 1.41209H20.7054V8.63515C20.7054 9.02515 21.0218 9.34103 21.4113 9.34103H27.647V12.8775H4.35293V1.41209ZM21.6836 20.1975C21.6836 22.2156 20.9487 23.607 19.9306 24.4677C18.8214 25.3903 17.1319 25.8281 15.0681 25.8281C13.8329 25.8281 12.9572 25.7498 12.3622 25.6719V15.3179C13.238 15.1775 14.3804 15.0993 15.5847 15.0993C17.5855 15.0993 18.8839 15.4593 19.9009 16.2251C20.9953 17.0385 21.6836 18.3364 21.6836 20.1975ZM3.2745 25.7188V15.3179C4.00921 15.1935 5.04195 15.0993 6.49646 15.0993C7.96646 15.0993 9.01456 15.3808 9.71809 15.9442C10.3908 16.4757 10.8432 17.3517 10.8432 18.384C10.8432 19.4166 10.5001 20.2923 9.87404 20.8862C9.06083 21.6528 7.85672 21.9971 6.44875 21.9971C6.13646 21.9971 5.85398 21.9812 5.636 21.9498V25.7191H3.2745V25.7188ZM27.6471 34.206H4.35293V27.4053H27.647V34.206H27.6471ZM29.6926 17.1325H25.6411V19.541H29.4262V21.4805H25.6411V25.7189H23.2494V15.1775H29.6926V17.1325Z" fill="url(#paint2_linear)"/>
<defs>
<linearGradient id="paint0_linear" x1="6.78604" y1="19.5873" x2="7.24833" y2="16.9226" gradientUnits="userSpaceOnUse">
<stop stop-color="#499E68"/>
<stop offset="1" stop-color="#66B644"/>
</linearGradient>
<linearGradient id="paint1_linear" x1="16.531" y1="22.72" x2="17.8819" y2="17.1359" gradientUnits="userSpaceOnUse">
<stop stop-color="#499E68"/>
<stop offset="1" stop-color="#66B644"/>
</linearGradient>
<linearGradient id="paint2_linear" x1="12.9394" y1="29.6158" x2="17.9506" y2="0.237997" gradientUnits="userSpaceOnUse">
<stop stop-color="#499E68"/>
<stop offset="1" stop-color="#66B644"/>
</linearGradient>
</defs>
</svg>
