<svg width="32" height="36" viewBox="0 0 32 36" fill="none" xmlns="http://www.w3.org/2000/svg">
<path d="M29.9236 12.877H29.0592V8.70606C29.0592 8.68006 29.0551 8.65386 29.052 8.62727C29.0506 8.46181 28.9976 8.29918 28.8842 8.17029L21.9429 0.241427C21.9407 0.239391 21.9387 0.238669 21.9373 0.236502C21.8959 0.190279 21.8477 0.151803 21.7966 0.118579C21.7816 0.108468 21.7663 0.099998 21.7505 0.0910684C21.7064 0.0671031 21.6594 0.0469459 21.6112 0.0324353C21.5981 0.0290211 21.5864 0.0236371 21.5734 0.0202228C21.5209 0.00774771 21.4665 0 21.4114 0H4.35296C3.57405 0 2.94123 0.63354 2.94123 1.41179V12.8766H2.0769C0.962609 12.8766 0.059082 13.7798 0.059082 14.8945V25.3875C0.059082 26.5012 0.962609 27.4053 2.0769 27.4053H2.94123V34.5883C2.94123 35.3666 3.57405 36 4.35296 36H27.647C28.4253 36 29.0588 35.3666 29.0588 34.5883V27.4054H29.9232C31.0372 27.4054 31.9408 26.5016 31.9408 25.3876V14.8949C31.9409 13.7799 31.0378 12.877 29.9236 12.877ZM4.35296 1.41179H20.7055V8.63463C20.7055 9.02464 21.0218 9.34052 21.4114 9.34052H27.6471V12.877H4.35296V1.41179ZM18.6546 20.6602C17.2677 20.177 16.3626 19.4097 16.3626 18.1951C16.3626 16.7704 17.5517 15.6806 19.5219 15.6806C20.4628 15.6806 21.157 15.8785 21.652 16.1016L21.231 17.6249C20.8967 17.4643 20.3022 17.2285 19.4846 17.2285C18.667 17.2285 18.2707 17.6003 18.2707 18.0339C18.2707 18.5667 18.7416 18.8019 19.819 19.2106C21.2927 19.7559 21.9865 20.5238 21.9865 21.7004C21.9865 23.1005 20.9088 24.2897 18.6171 24.2897C17.6635 24.2897 16.7221 24.0422 16.2513 23.7817L16.635 22.221C17.143 22.4808 17.9237 22.7414 18.7285 22.7414C19.5964 22.7414 20.054 22.3823 20.054 21.8371C20.0543 21.3172 19.658 21.0193 18.6546 20.6602ZM15.4598 22.58V24.1661H10.2439V15.816H12.1399V22.58H15.4598ZM4.1875 24.1661H2.03219L4.44764 19.9408L2.11853 15.8156H4.28664L5.01709 17.3396C5.26489 17.8475 5.45083 18.2558 5.64925 18.7273H5.67335C5.8721 18.1944 6.03296 17.8228 6.24294 17.3396L6.94916 15.8156H9.10454L6.75081 19.8908L9.22876 24.1654H7.04877L6.29271 22.6538C5.98352 22.0724 5.78517 21.6384 5.54971 21.1552H5.52509C5.35143 21.6384 5.14132 22.0724 4.88092 22.6538L4.1875 24.1661ZM27.6471 34.206H4.35296V27.4054H27.647V34.206H27.6471ZM27.6598 24.1661L26.904 22.6545C26.5944 22.0726 26.3962 21.6391 26.1608 21.1558H26.1368C25.963 21.6391 25.7521 22.0726 25.4915 22.6545L24.7988 24.1661H22.6428L25.0583 19.9408L22.7293 15.8156H24.8973L25.6287 17.3396C25.8762 17.8475 26.0616 18.2558 26.2602 18.7273H26.285C26.4828 18.1944 26.6434 17.8228 26.8543 17.3396L27.5602 15.8156H29.7161L27.3623 19.8908L29.8398 24.1654H27.6598V24.1661Z" fill="url(#paint0_linear)"/>
<defs>
<linearGradient id="paint0_linear" x1="12.9393" y1="29.6158" x2="17.9506" y2="0.238005" gradientUnits="userSpaceOnUse">
<stop stop-color="#499E68"/>
<stop offset="1" stop-color="#66B644"/>
</linearGradient>
</defs>
</svg>
