<svg width="16" height="16" viewBox="0 0 16 16" fill="none" xmlns="http://www.w3.org/2000/svg">
<path fill-rule="evenodd" clip-rule="evenodd" d="M6.66671 12C3.72119 12 1.33337 9.61217 1.33337 6.66665C1.33337 3.72113 3.72119 1.33331 6.66671 1.33331C9.61223 1.33331 12 3.72113 12 6.66665C12 7.89912 11.582 9.03394 10.88 9.93706L14.4715 13.5286L13.5287 14.4714L9.93715 10.8799C9.03402 11.5819 7.89919 12 6.66671 12ZM10.6667 6.66665C10.6667 8.87579 8.87585 10.6666 6.66671 10.6666C4.45757 10.6666 2.66671 8.87579 2.66671 6.66665C2.66671 4.45751 4.45757 2.66665 6.66671 2.66665C8.87585 2.66665 10.6667 4.45751 10.6667 6.66665Z" fill="white"/>
</svg>
