<svg width="14" height="13" viewBox="0 0 14 13" fill="none" xmlns="http://www.w3.org/2000/svg">
<path fill-rule="evenodd" clip-rule="evenodd" d="M2.59985 1.6001H11.3999C12.5044 1.6001 13.3999 2.49553 13.3999 3.6001V10.4001C13.3999 11.5047 12.5044 12.4001 11.3999 12.4001H2.59985C1.49528 12.4001 0.599854 11.5047 0.599854 10.4001V3.6001C0.599854 2.49553 1.49528 1.6001 2.59985 1.6001ZM2.59985 2.4001C1.93711 2.4001 1.39985 2.93736 1.39985 3.6001V10.4001C1.39985 11.0628 1.93711 11.6001 2.59985 11.6001H11.3999C12.0626 11.6001 12.5999 11.0628 12.5999 10.4001V3.6001C12.5999 2.93736 12.0626 2.4001 11.3999 2.4001H2.59985Z" fill="#A4A7B0"/>
<path fill-rule="evenodd" clip-rule="evenodd" d="M3.40029 0C3.62121 0 3.80029 0.179086 3.80029 0.4V1.6C3.80029 1.82091 3.62121 2 3.40029 2C3.17938 2 3.00029 1.82091 3.00029 1.6V0.4C3.00029 0.179086 3.17938 0 3.40029 0Z" fill="#A4A7B0"/>
<path fill-rule="evenodd" clip-rule="evenodd" d="M10.6002 0C10.8212 0 11.0002 0.179086 11.0002 0.4V1.6C11.0002 1.82091 10.8212 2 10.6002 2C10.3793 2 10.2002 1.82091 10.2002 1.6V0.4C10.2002 0.179086 10.3793 0 10.6002 0Z" fill="#A4A7B0"/>
</svg>
