<svg width="14" height="17" viewBox="0 0 14 17" fill="none" xmlns="http://www.w3.org/2000/svg">
<path d="M11.029 4.00653L11.1277 4.08328C13.0614 5.58796 14.0263 8.02487 13.6454 10.4428C13.6454 10.4428 13.6454 10.4429 13.6454 10.4429L13.5219 10.4234C13.2479 12.1651 12.3121 13.6958 10.8866 14.7339L11.029 4.00653ZM11.029 4.00653L10.9523 4.10515L10.2286 5.03479L10.1518 5.13345L10.2505 5.21022C11.7745 6.39607 12.5346 8.31589 12.2346 10.2209L12.2346 10.2209C12.0148 11.619 11.2639 12.8473 10.1198 13.6807M11.029 4.00653L10.1198 13.6807M10.1198 13.6807C8.97518 14.5137 7.57585 14.8521 6.17785 14.6311L6.17778 14.6311C3.29216 14.1768 1.31342 11.4593 1.76702 8.57348C1.98682 7.17522 2.73795 5.94687 3.88224 5.11369C4.80563 4.44149 5.89483 4.09239 7.01536 4.09799L6.19002 4.96386L6.10382 5.05429L6.1942 5.14054L6.94966 5.86147L7.04017 5.94785L7.12647 5.85726L8.62291 4.28623L8.62331 4.28687L8.7344 4.17021L9.45456 3.41397L9.54069 3.32353L9.45032 3.23733L8.6954 2.51716L8.6265 2.45143L8.62607 2.45169L7.00794 0.909513L6.91745 0.823272L6.83121 0.913763L6.11051 1.67L6.02424 1.76051L6.11478 1.84675L6.97996 2.6708C5.57129 2.67212 4.20237 3.11451 3.04186 3.9595C1.58968 5.01687 0.635819 6.57698 0.356629 8.3518L0.356628 8.35181C-0.219351 12.0154 2.29216 15.4653 5.95575 16.0418L10.1198 13.6807Z" fill="#A4A7B0" stroke="#A4A7B0" stroke-width="0.25"/>
</svg>
