<svg width="16" height="16" viewBox="0 0 16 16" fill="none" xmlns="http://www.w3.org/2000/svg">
<path d="M13.5229 3.51459H6.38346C6.18718 2.93162 5.63577 2.51044 4.98746 2.51044C4.33915 2.51044 3.78774 2.93162 3.59146 3.51459H2.47705C2.21818 3.51459 2.0083 3.72447 2.0083 3.98334C2.0083 4.24222 2.21818 4.45209 2.47705 4.45209H3.59149C3.78777 5.03506 4.33918 5.45625 4.98749 5.45625C5.6358 5.45625 6.18721 5.03506 6.38349 4.45209H13.5229C13.7818 4.45209 13.9916 4.24222 13.9916 3.98334C13.9916 3.72447 13.7818 3.51459 13.5229 3.51459ZM4.98746 4.51875C4.69224 4.51875 4.45205 4.27856 4.45205 3.98334C4.45205 3.68812 4.69224 3.44794 4.98746 3.44794C5.28268 3.44794 5.52286 3.68812 5.52286 3.98334C5.52286 4.27856 5.28268 4.51875 4.98746 4.51875Z" fill="#A4A7B0"/>
<path d="M13.5229 7.53124H12.4084C12.2121 6.94827 11.6607 6.52708 11.0124 6.52708C10.3641 6.52708 9.81274 6.94827 9.61646 7.53124H2.47705C2.21818 7.53124 2.0083 7.74112 2.0083 7.99999C2.0083 8.25887 2.21818 8.46874 2.47705 8.46874H9.61646C9.81274 9.05171 10.3642 9.4729 11.0125 9.4729C11.6607 9.4729 12.2122 9.05171 12.4085 8.46874H13.5229C13.7818 8.46874 13.9916 8.25887 13.9916 7.99999C13.9916 7.74112 13.7818 7.53124 13.5229 7.53124ZM11.0125 8.5354C10.7172 8.5354 10.4771 8.29521 10.4771 7.99999C10.4771 7.70477 10.7172 7.46458 11.0125 7.46458C11.3077 7.46458 11.5479 7.70477 11.5479 7.99999C11.5479 8.29521 11.3077 8.5354 11.0125 8.5354Z" fill="#A4A7B0"/>
<path d="M13.5229 11.5479H8.3918C8.19552 10.9649 7.64412 10.5437 6.9958 10.5437C6.34749 10.5437 5.79608 10.9649 5.5998 11.5479H2.47705C2.21818 11.5479 2.0083 11.7578 2.0083 12.0167C2.0083 12.2755 2.21818 12.4854 2.47705 12.4854H5.5998C5.79608 13.0684 6.34749 13.4896 6.9958 13.4896C7.64412 13.4896 8.19552 13.0684 8.3918 12.4854H13.5229C13.7818 12.4854 13.9916 12.2755 13.9916 12.0167C13.9916 11.7578 13.7818 11.5479 13.5229 11.5479ZM6.9958 12.5521C6.70058 12.5521 6.4604 12.3119 6.4604 12.0167C6.4604 11.7215 6.70058 11.4813 6.9958 11.4813C7.29102 11.4813 7.53121 11.7214 7.53121 12.0167C7.53121 12.3119 7.29102 12.5521 6.9958 12.5521Z" fill="#A4A7B0"/>
</svg>
