<svg width="12" height="14" viewBox="0 0 12 14" fill="none" xmlns="http://www.w3.org/2000/svg">
<path d="M10.6168 5.65378H10.344V4.37704C10.344 2.01561 8.47003 0.0429722 6.12781 0.000862896C6.06381 -0.000287632 5.93593 -0.000287632 5.87196 0.000862896C3.52969 0.0429722 1.65577 2.01561 1.65577 4.37704V5.65378H1.38295C0.962544 5.65378 0.619629 6.08759 0.619629 6.62336V13.027C0.619629 13.5621 0.962544 14 1.38298 14H10.6168C11.0372 14 11.3801 13.5621 11.3801 13.027V6.62336C11.3801 6.08762 11.0372 5.65378 10.6168 5.65378ZM6.86495 9.81866V11.7536C6.86495 11.9752 6.67946 12.1627 6.45773 12.1627H5.54208C5.32031 12.1627 5.13482 11.9752 5.13482 11.7536V9.81866C4.91976 9.60697 4.79455 9.31424 4.79455 8.99043C4.79455 8.37679 5.26888 7.84951 5.87199 7.82514C5.9359 7.82256 6.06393 7.82256 6.12784 7.82514C6.73095 7.84951 7.20528 8.37679 7.20528 8.99043C7.20522 9.31424 7.08002 9.60697 6.86495 9.81866ZM8.54599 5.65378H6.12781H5.87196H3.45378V4.37704C3.45378 2.97038 4.59695 1.80728 5.99987 1.80728C7.4028 1.80728 8.54602 2.97038 8.54602 4.37704V5.65378H8.54599Z" fill="#A4A7B0"/>
</svg>
